<svg id="_4" data-name="4" xmlns="http://www.w3.org/2000/svg" viewBox="0 0 1435 1207"><defs><style>.cls-1,.cls-2,.cls-3{fill:#fff;stroke:#fff;stroke-miterlimit:10;}.cls-2{stroke-width:11px;}.cls-3{stroke-width:73px;fill-rule:evenodd;}</style></defs><path class="cls-1" d="M771.49,20.41,1009,157.59,1247,295a38.74,38.74,0,0,1,19.38,33.65h.1V581.3h-78V351L970,225l-218.35-126L533.16,225,314.81,351V570.38H236.68V328.6a38.87,38.87,0,0,1,22-35l235.47-136L732,20.22a39.29,39.29,0,0,1,39.46.19Zm495,639.91V878.08a39,39,0,0,1-21.94,35.13l-235.48,136L771.09,1186.57a39,39,0,0,1-39.46-.3L494.19,1049.19,256.26,911.83a39,39,0,0,1-19.49-33.75h-.09V649.19h78.13V855.64L533.16,981.8l218.45,126L970,981.8l218.45-126.16V660.32Z"/><path class="cls-2" d="M666.29,956.31a20.83,20.83,0,0,0,20.87-19l50.18-492.8,33,237.15a19.9,19.9,0,0,0,7.58,13.68,20.44,20.44,0,0,0,13,4.72h.1a20.7,20.7,0,0,0,15-6.59l52.26-53.83H952a20.58,20.58,0,0,0,19.39-13.38l37.49-96.92,39.16,99a18.44,18.44,0,0,0,1.87,3.64,20.85,20.85,0,0,0,17.52,9.54h314.68a20.72,20.72,0,1,0,0-41.43H1081.45l-53.24-134.51a20.49,20.49,0,0,0-10.33-11.71,20.94,20.94,0,0,0-16.82-.59,20.34,20.34,0,0,0-11.71,12.1L937.78,598.23H849.42a21.1,21.1,0,0,0-14.76,6.2l-29,30L754.76,268.39a3.41,3.41,0,0,0-.2-1.08,20.87,20.87,0,0,0-20.47-16.83,17.33,17.33,0,0,0-3.84.39,20.58,20.58,0,0,0-16.72,18.7L659.11,803l-60.22-280a20.66,20.66,0,0,0-40.54.49L512.79,722.9,435.25,598.82a1.94,1.94,0,0,1-.39-.59,20.9,20.9,0,0,0-17.32-9.06H121.06a20.67,20.67,0,1,0,0,41.33H406.12L504,786.57a20.54,20.54,0,0,0,8.86,8.46,22.31,22.31,0,0,0,4.92,1.67,20.76,20.76,0,0,0,24.3-15.94L578,623.22l68.19,316.66a5.88,5.88,0,0,0,.2.68,20.58,20.58,0,0,0,19.87,15.75Z"/><path class="cls-3" d="M122.14,569.89a40.2,40.2,0,1,1-40.25,40.24,40.21,40.21,0,0,1,40.25-40.24Z"/></svg>